# xmcd
#
# Track frame offsets: 
#        150
#        14015
#        28189
#        41260
#        51947
#        62092
#        71688
#        85281
#        100086
#        113231
#        127887
#        138910
#        153408
#        167101
#        180686
#        194518
#        208589
#        222149
#        234666
#        249498
#        260957
#        275483
#        287362
#        306029
#
# Disc length: 4162 seconds
#
# Revision: 1
# Processed by: cddbd v1.5.1PL2 Copyright (c) Steve Scherf et al.
# Submitted via: ExactAudioCopy v0.95a5
#
DISCID=63104018
DTITLE=Homer translated by Fitzgerald - The Iliad read by Guidall
DYEAR=1994
DGENRE=Speech
TTITLE0=Book 23 n
TTITLE1=Book 23 o
TTITLE2=Book 23 p
TTITLE3=Book 23 q
TTITLE4=Book 23 r
TTITLE5=Book 24 a
TTITLE6=Book 24 b
TTITLE7=Book 24 c
TTITLE8=Book 24 d
TTITLE9=Book 24 e
TTITLE10=Book 24 f
TTITLE11=Book 24 g
TTITLE12=Book 24 h
TTITLE13=Book 24 i
TTITLE14=Book 24 j
TTITLE15=Book 24 k
TTITLE16=Book 24 l
TTITLE17=Book 24 m
TTITLE18=Book 24 n
TTITLE19=Book 24 o
TTITLE20=Book 24 p
TTITLE21=Book 24 q
TTITLE22=Book 24 r
TTITLE23=Book 24 s
EXTD=
EXTT0=
EXTT1=
EXTT2=
EXTT3=
EXTT4=
EXTT5=
EXTT6=
EXTT7=
EXTT8=
EXTT9=
EXTT10=
EXTT11=
EXTT12=
EXTT13=
EXTT14=
EXTT15=
EXTT16=
EXTT17=
EXTT18=
EXTT19=
EXTT20=
EXTT21=
EXTT22=
EXTT23=
PLAYORDER=
